<<<<<<< HEAD
<?xml version="1.0" encoding="utf-8"?>
<!-- Generator: Adobe Illustrator 27.4.0, SVG Export Plug-In . SVG Version: 6.00 Build 0)  -->
<svg version="1.1" id="Camada_1" xmlns="http://www.w3.org/2000/svg" xmlns:xlink="http://www.w3.org/1999/xlink" x="0px" y="0px"
	 viewBox="0 0 24 24" style="enable-background:new 0 0 24 24;" xml:space="preserve">
<style type="text/css">
	.st0{opacity:0.3;fill:#FFFFFF;}
	.st1{fill:#FFFFFF;}
</style>
<path class="st0" d="M12,22L12,22C6.5,22,2,17.5,2,12l0,0C2,6.5,6.5,2,12,2l0,0c5.5,0,10,4.5,10,10l0,0C22,17.5,17.5,22,12,22z"/>
<path class="st1" d="M7,10.9h10c0.6,0,1,0.4,1,1l0,0c0,0.6-0.4,1-1,1H7c-0.6,0-1-0.4-1-1l0,0C6,11.4,6.5,10.9,7,10.9z"/>
=======
<svg width="24" height="24" viewBox="0 0 24 24" fill="none" xmlns="http://www.w3.org/2000/svg">
<rect opacity="0.3" x="2" y="2" width="20" height="20" rx="5" fill="currentColor"/>
<rect x="6.0104" y="10.9247" width="12" height="2" rx="1" fill="currentColor"/>
>>>>>>> origin/main
</svg>
