<<<<<<< HEAD
<?xml version="1.0" encoding="utf-8"?>
<!-- Generator: Adobe Illustrator 27.4.0, SVG Export Plug-In . SVG Version: 6.00 Build 0)  -->
<svg version="1.1" id="Camada_1" xmlns="http://www.w3.org/2000/svg" xmlns:xlink="http://www.w3.org/1999/xlink" x="0px" y="0px"
	 viewBox="0 0 24 24" style="enable-background:new 0 0 24 24;" xml:space="preserve">
<style type="text/css">
	.st0{opacity:0;fill:#1D1D1B;fill-opacity:0;}
	.st1{fill:#A91916;}
	.st2{fill:#FFFFFF;}
</style>
<path class="st0" d="M7,2h10c2.8,0,5,2.2,5,5v10c0,2.8-2.2,5-5,5H7c-2.8,0-5-2.2-5-5V7C2,4.2,4.2,2,7,2z"/>
<path class="st1" d="M12,22L12,22C6.5,22,2,17.5,2,12v0C2,6.5,6.5,2,12,2h0c5.5,0,10,4.5,10,10v0C22,17.5,17.5,22,12,22z"/>
<path class="st2" d="M7.7,14.6l7.1-7.1c0.4-0.4,1-0.4,1.4,0l0,0c0.4,0.4,0.4,1,0,1.4L9.1,16c-0.4,0.4-1,0.4-1.4,0l0,0
	C7.3,15.6,7.3,15,7.7,14.6z"/>
<path class="st2" d="M9.1,7.7l7.1,7.1c0.4,0.4,0.4,1,0,1.4l0,0c-0.4,0.4-1,0.4-1.4,0L7.7,9.1c-0.4-0.4-0.4-1,0-1.4l0,0
	C8.1,7.3,8.7,7.3,9.1,7.7z"/>
=======
<svg width="24" height="24" viewBox="0 0 24 24" fill="none" xmlns="http://www.w3.org/2000/svg">
<rect opacity="0.3" x="2" y="2" width="20" height="20" rx="5" fill="currentColor"/>
<rect x="7" y="15.3137" width="12" height="2" rx="1" transform="rotate(-45 7 15.3137)" fill="currentColor"/>
<rect x="8.41422" y="7" width="12" height="2" rx="1" transform="rotate(45 8.41422 7)" fill="currentColor"/>
>>>>>>> origin/main
</svg>
