<?xml version="1.0" encoding="utf-8"?>
<!-- Generator: Adobe Illustrator 27.4.0, SVG Export Plug-In . SVG Version: 6.00 Build 0)  -->
<svg version="1.1" id="Camada_1" xmlns="http://www.w3.org/2000/svg" xmlns:xlink="http://www.w3.org/1999/xlink" x="0px" y="0px"
	 viewBox="0 0 24 24" style="enable-background:new 0 0 24 24;" xml:space="preserve">
<style type="text/css">
	.st0{fill:#555558;enable-background:new    ;}
	.st1{fill:#FFFFFF;}
</style>
<path class="st0" d="M20,3H4C2.9,3,2,3.9,2,5v11c0,1.1,0.9,2,2,2h0.5c0.6,0,1,0.4,1,1v2.5c0,0.6,0.7,1,1.2,0.7l4.7-3.2
	c1-0.7,2.1-1,3.3-1H20c1.1,0,2-0.9,2-2V5C22,3.9,21.1,3,20,3z"/>
<path class="st1" d="M7,12h5c0.6,0,1,0.4,1,1l0,0c0,0.6-0.4,1-1,1H7c-0.6,0-1-0.4-1-1l0,0C6,12.4,6.4,12,7,12z"/>
<path class="st1" d="M7,7h10c0.6,0,1,0.4,1,1l0,0c0,0.6-0.4,1-1,1H7C6.4,9,6,8.6,6,8l0,0C6,7.4,6.4,7,7,7z"/>
</svg>
